<?xml version="1.0" encoding="utf-8"?>
<!-- Generator: Adobe Illustrator 24.0.2, SVG Export Plug-In . SVG Version: 6.00 Build 0)  -->
<svg version="1.1" id="Layer_1" xmlns="http://www.w3.org/2000/svg" xmlns:xlink="http://www.w3.org/1999/xlink" x="0px" y="0px"
	 viewBox="0 0 1159.6 499.1" style="enable-background:new 0 0 1159.6 499.1;" xml:space="preserve">
<style type="text/css">
	.st0{fill:url(#SVGID_1_);}
	.st1{fill:url(#SVGID_2_);}
	.st2{fill:#FFFFFF;}
	.st3{fill:url(#SVGID_3_);}
</style>
<g>
	
		<linearGradient id="SVGID_1_" gradientUnits="userSpaceOnUse" x1="361.5154" y1="1024.5676" x2="58.1441" y2="529.1209" gradientTransform="matrix(1 0 0 -1 0 999.1264)">
		<stop  offset="0" style="stop-color:#5163E5"/>
		<stop  offset="1" style="stop-color:#1637D8"/>
	</linearGradient>
	<path class="st0" d="M415.7,56.9l-29.5,25.2c-30.4-15.8-65-24.7-101.6-24.7c-62.9,0-119.8,26.4-160.1,68.5
		c-1.3,1.4-2.5,2.7-3.7,4.1l-44.2-13.1l27.5,33.9c-0.9,1.3-1.7,2.4-2.5,3.7c-23.9,35.3-38,78.1-38,124.1
		c0,116.8,90.6,212.4,205.3,220.4c-3.9,0.2-7.8,0.3-11.7,0.3C119.3,499,7.6,387.3,7.6,249.6c0-49.9,14.7-96.4,40-135.4
		c3.8-5.9,7.9-11.7,12.3-17.2C105.4,37.9,176.8,0,257.2,0C317.3,0,372.6,21.3,415.7,56.9z"/>
	
		<linearGradient id="SVGID_2_" gradientUnits="userSpaceOnUse" x1="529.6158" y1="921.6365" x2="226.2443" y2="426.1898" gradientTransform="matrix(1 0 0 -1 0 999.1264)">
		<stop  offset="0" style="stop-color:#5163E5"/>
		<stop  offset="1" style="stop-color:#1637D8"/>
	</linearGradient>
	<path class="st1" d="M506.6,249.6h-3c-7.2-55.7-35.3-105-76.2-139.7l19.9-21.7C484.3,131.6,506.6,188,506.6,249.6z"/>
	<path class="st2" d="M94.9,129.8l151.9,68c-13.5,2.3-25.3,9.8-33.3,20.3L94.9,129.8z"/>
	<path class="st2" d="M506.6,0L302.3,223.6c-6.7-11.3-17.3-20-29.9-24L506.6,0z"/>
	
		<linearGradient id="SVGID_3_" gradientUnits="userSpaceOnUse" x1="405.4523" y1="997.664" x2="102.081" y2="502.2172" gradientTransform="matrix(1 0 0 -1 0 999.1264)">
		<stop  offset="0" style="stop-color:#5163E5"/>
		<stop  offset="1" style="stop-color:#1637D8"/>
	</linearGradient>
	<path class="st3" d="M291.8,250.6h-71.6c0-19.8,16-35.8,35.8-35.8S291.8,230.8,291.8,250.6z"/>
	<g>
		<path class="st2" d="M196.1,275.1v13.7h-27.5V378h-16.9v-89.2h-27.6v-13.7L196.1,275.1L196.1,275.1z"/>
		<path class="st2" d="M275.3,357.2h-43l-7.4,21h-17.6L244,275h19.6l36.8,103.2h-17.7L275.3,357.2z M270.5,343.3l-16.8-47.9
			l-16.9,47.9H270.5z"/>
		<path class="st2" d="M384.7,320.7c-2.4,4.7-6.4,8.5-11.9,11.4s-12.4,4.4-20.9,4.4h-18.7v41.8h-16.9v-103h35.6
			c7.9,0,14.6,1.5,20.1,4.1c5.5,2.7,9.6,6.4,12.3,11.1c2.7,4.7,4.1,9.8,4.1,15.6C388.4,311,387.2,316,384.7,320.7z M366.4,318.2
			c3.2-2.9,4.7-7.1,4.7-12.3c0-11.3-6.3-16.9-19.1-16.9h-18.7v33.7H352C358.4,322.5,363.3,321.1,366.4,318.2z"/>
		<path class="st2" d="M419.8,375.5c-5.5-2.4-9.8-5.8-13-10.3s-4.7-9.6-4.7-15.6h18.1c0.4,4.5,2.1,8.1,5.2,10.9
			c3.2,2.8,7.5,4.4,13.1,4.4c5.8,0,10.3-1.5,13.6-4.3c3.3-2.8,5-6.4,5-10.9c0-3.4-1.1-6.2-3-8.5c-1.9-2.2-4.6-3.9-7.5-5.1
			c-3-1.2-7.2-2.4-12.5-3.9c-6.7-1.7-12.2-3.5-16.3-5.3c-4.3-1.8-7.8-4.7-10.8-8.5c-2.9-3.9-4.5-9-4.5-15.3c0-5.8,1.6-11.2,4.5-15.6
			s7.2-7.9,12.4-10.2c5.2-2.3,11.5-3.5,18.6-3.5c10,0,18.2,2.4,24.6,7.5c6.3,5.1,9.8,11.9,10.6,20.5h-18.7c-0.4-3.8-2.1-6.9-5.2-9.6
			c-3.3-2.7-7.5-4-12.9-4c-4.9,0-8.8,1.3-11.9,3.8c-3.2,2.4-4.6,6-4.6,10.7c0,3.2,1,5.7,2.9,7.8c1.8,1.9,4.4,3.6,7.3,4.9
			c2.9,1.2,7.1,2.4,12.2,3.9c6.8,1.8,12.3,3.8,16.7,5.6c4.4,1.8,8,4.9,10.9,8.6c3,3.9,4.6,9.1,4.6,15.6c0,5.2-1.5,10.2-4.3,14.8
			c-2.8,4.7-6.9,8.4-12.3,11.2s-11.8,4.3-19,4.3C431.6,379.2,425.3,378,419.8,375.5z"/>
		<path class="st2" d="M562.4,320.7c-2.4,4.7-6.4,8.5-11.9,11.4c-5.3,2.9-12.4,4.4-20.9,4.4h-18.7v41.8H494v-103h35.7
			c7.9,0,14.6,1.5,20.1,4.1c5.5,2.7,9.6,6.4,12.3,11.1s4.1,9.8,4.1,15.6C566,311,564.8,316,562.4,320.7z M543.9,318.2
			c3.2-2.9,4.7-7.1,4.7-12.3c0-11.3-6.3-16.9-19.1-16.9h-18.7v33.7h18.7C536,322.5,540.8,321.1,543.9,318.2z"/>
		<path class="st2" d="M599.1,288.9v30.3h35.6v13.7h-35.6v31.6h40v13.7h-56.9V275h56.9v13.7L599.1,288.9L599.1,288.9z"/>
		<path class="st2" d="M676.6,288.9v30.3h35.6v13.7h-35.6v31.6h40v13.7h-56.9V275h56.9v13.7L676.6,288.9L676.6,288.9z"/>
		<path class="st2" d="M799.9,281.5c8.3,4.3,14.7,10.2,19.1,18.1c4.5,7.9,6.7,17,6.7,27.5s-2.2,19.6-6.7,27.2
			c-4.5,7.8-10.9,13.6-19.1,17.7c-8.1,4.1-17.9,6.1-28.8,6.1h-33.7v-103h33.7C781.9,275.1,791.6,277.2,799.9,281.5z M798.7,354.6
			c6.4-6.6,9.6-15.7,9.6-27.6s-3.2-21.3-9.6-28.1c-6.4-6.7-15.6-10.1-27.7-10.1h-16.8v75.5H771C783.1,364.4,792.2,361.2,798.7,354.6
			z"/>
		<path class="st2" d="M908.9,275.1v13.7h-27.5V378h-16.9v-89.2H837v-13.7L908.9,275.1L908.9,275.1z"/>
		<path class="st2" d="M942.8,288.9v30.3h35.6v13.7h-35.6v31.6h40v13.7H926V275h56.9v13.7L942.8,288.9L942.8,288.9z"/>
		<path class="st2" d="M1018.9,375.5c-5.5-2.4-9.8-5.8-13-10.3s-4.7-9.6-4.7-15.6h18.1c0.4,4.5,2.1,8.1,5.2,10.9
			c3.2,2.8,7.5,4.4,13.1,4.4c5.8,0,10.3-1.5,13.6-4.3c3.3-2.8,5-6.4,5-10.9c0-3.4-1.1-6.2-3-8.5c-1.9-2.2-4.6-3.9-7.5-5.1
			c-3-1.2-7.2-2.4-12.5-3.9c-6.7-1.7-12.2-3.5-16.3-5.3c-4.3-1.8-7.8-4.7-10.8-8.5c-2.9-3.9-4.5-9-4.5-15.3c0-5.8,1.6-11.2,4.5-15.6
			s7.2-7.9,12.4-10.2c5.2-2.3,11.5-3.5,18.6-3.5c10,0,18.2,2.4,24.6,7.5c6.3,5.1,9.8,11.9,10.6,20.5h-18.7c-0.4-3.8-2.1-6.9-5.2-9.6
			c-3.3-2.7-7.5-4-12.9-4c-4.9,0-8.8,1.3-11.9,3.8s-4.6,6-4.6,10.7c0,3.2,1,5.7,2.9,7.8c1.8,1.9,4.4,3.6,7.3,4.9
			c2.9,1.2,7.1,2.4,12.2,3.9c6.8,1.8,12.3,3.8,16.7,5.6c4.4,1.8,8,4.9,10.9,8.6c3,3.9,4.5,9.1,4.5,15.6c0,5.2-1.5,10.2-4.3,14.8
			c-2.8,4.7-6.9,8.4-12.3,11.2c-5.3,2.8-11.8,4.3-19,4.3C1030.6,379.2,1024.4,378,1018.9,375.5z"/>
		<path class="st2" d="M1159.6,275.1v13.7h-27.5V378h-16.9v-89.2h-27.6v-13.7L1159.6,275.1L1159.6,275.1z"/>
	</g>
</g>
</svg>
