<svg width="74" height="74" viewBox="0 0 74 74" fill="none" xmlns="http://www.w3.org/2000/svg">
<path d="M71.4115 29.613H52.5809C52.2573 29.613 51.9925 29.879 51.9925 30.2041V33.7507C51.9925 34.0759 52.2573 34.3419 52.5809 34.3419H71.4115C71.7352 34.3419 72 34.0759 72 33.7507V30.2041C72 29.879 71.7352 29.613 71.4115 29.613ZM61.5549 39.6618H52.5809C52.2573 39.6618 51.9925 39.9278 51.9925 40.2529V43.7996C51.9925 44.1247 52.2573 44.3907 52.5809 44.3907H61.5549C61.8785 44.3907 62.1433 44.1247 62.1433 43.7996V40.2529C62.1433 39.9278 61.8785 39.6618 61.5549 39.6618ZM37.0089 23H33.8238C33.3678 23 33 23.3694 33 23.8275V42.1518C33 42.4178 33.125 42.6617 33.3384 42.8168L44.291 50.8411C44.6588 51.1071 45.1737 51.0332 45.4385 50.6638L47.3289 48.0703V48.0629C47.5937 47.6935 47.5128 47.1762 47.145 46.9102L37.8253 40.1421V23.8275C37.8327 23.3694 37.4576 23 37.0089 23Z" fill="#E90379"/>
<path d="M61.3173 49.0064H57.033C56.6179 49.0064 56.225 49.2215 56.0027 49.5776C55.0613 51.0685 53.9643 52.4482 52.7042 53.7091C50.5324 55.8825 48.0048 57.5885 45.1956 58.7753C42.2825 60.0066 39.1916 60.6297 36.0043 60.6297C32.8096 60.6297 29.7187 60.0066 26.8131 58.7753C24.0038 57.5885 21.4762 55.8825 19.3044 53.7091C17.1326 51.5358 15.4278 49.0064 14.2419 46.1952C13.0114 43.2875 12.3888 40.1944 12.3888 36.9974C12.3888 33.8005 13.0114 30.7148 14.2419 27.7997C15.4278 24.9884 17.1326 22.459 19.3044 20.2857C21.4762 18.1124 24.0038 16.4063 26.8131 15.2195C29.7187 13.9882 32.817 13.3651 36.0043 13.3651C39.199 13.3651 42.29 13.9882 45.1956 15.2195C48.0048 16.4063 50.5324 18.1124 52.7042 20.2857C53.9643 21.5467 55.0613 22.9264 56.0027 24.4173C56.225 24.7733 56.6179 24.9884 57.033 24.9884H61.3173C61.8287 24.9884 62.1549 24.4544 61.9251 24.0019C57.0923 14.3813 47.2932 8.12836 36.3527 8.00226C20.3348 7.80199 7.0297 20.9236 7.00005 36.9381C6.9704 52.9822 19.9641 66 35.9969 66C47.0783 66 57.0404 59.7248 61.9251 49.993C62.1549 49.5405 61.8213 49.0064 61.3173 49.0064V49.0064Z" fill="#E90379"/>
</svg>
